<?xml version="1.0" encoding="UTF-8" standalone="no"?>
<!DOCTYPE svg PUBLIC "-//W3C//DTD SVG 1.1//EN" "http://www.w3.org/Graphics/SVG/1.1/DTD/svg11.dtd">
<svg width="100%" height="100%" viewBox="0 0 384 512" version="1.1" xmlns="http://www.w3.org/2000/svg" xmlns:xlink="http://www.w3.org/1999/xlink" xml:space="preserve" xmlns:serif="http://www.serif.com/" style="fill-rule:evenodd;clip-rule:evenodd;stroke-linejoin:round;stroke-miterlimit:2;">
    <g transform="matrix(1,0,0,1,-742.575,-1562.22)">
        <g transform="matrix(1,0,0,1,614.575,1498.22)">
            <path d="M192,64C156.7,64 128,92.7 128,128L128,512C128,547.3 156.7,576 192,576L448,576C483.3,576 512,547.3 512,512L512,234.5C512,217.5 505.3,201.2 493.3,189.2L386.7,82.7C374.7,70.7 358.5,64 341.5,64L192,64ZM453.5,240L360,240C346.7,240 336,229.3 336,216L336,122.5L453.5,240Z" style="fill:rgb(28,50,255);fill-rule:nonzero;"/>
        </g>
    </g>
</svg>
